
<svg width="60px" height="60px" viewBox="0 0 60 60" version="1.1" xmlns="http://www.w3.org/2000/svg" xmlns:xlink="http://www.w3.org/1999/xlink">
    <!-- Generator: Sketch 51.3 (57544) - http://www.bohemiancoding.com/sketch -->
    <desc>Created with Sketch.</desc>
    <defs></defs>
    <g id="Drawing-Page-3" stroke="none" stroke-width="1" fill="none" fill-rule="evenodd">
        <g id="Desktop-HD" transform="translate(-165.000000, -165.000000)" fill="#FFFFFF" fill-rule="nonzero">
            <g id="Menu" transform="translate(159.000000, 165.000000)">
                <g id="palette" transform="translate(6.000000, 0.000000)">
                    <path d="M13.1199217,30.9375 C11.5615487,30.9375 10.30782,32.1914062 10.30782,33.75 C10.30782,35.3085937 11.5615487,36.5625 13.1199217,36.5625 C14.6782947,36.5625 15.9320234,35.3085937 15.9320234,33.75 C15.9320234,32.1914062 14.6782947,30.9375 13.1199217,30.9375 Z M16.8693906,17.8125 C15.3110176,17.8125 14.0572889,19.0664062 14.0572889,20.625 C14.0572889,22.1835937 15.3110176,23.4375 16.8693906,23.4375 C18.4277636,23.4375 19.6814923,22.1835937 19.6814923,20.625 C19.6814923,19.0664062 18.4277636,17.8125 16.8693906,17.8125 Z M29.9925317,0 C28.0123435,0 25.9852868,0.1875 23.934796,0.5859375 C12.2880083,2.859375 2.90261893,12.2226562 0.606069234,23.8359375 C-3.44804401,44.3554687 13.6354737,60 28.0592118,60 C29.0317303,60 29.9925317,59.9296875 30.941616,59.7773437 C35.7690572,59.0273437 38.1359095,53.3789062 35.9213794,49.03125 C33.2147316,43.7109375 37.0813714,37.5 43.0570874,37.5 L52.3956084,37.5 C56.5903267,37.5 59.9882829,34.03125 60,29.8476562 C59.9414145,13.3476562 46.5253461,0 29.9925317,0 Z M52.3838913,33.75 L43.0453703,33.75 C38.9092374,33.75 35.1480515,35.8476562 33.0038239,39.3515625 C30.8713135,42.8320312 30.7072742,47.0859375 32.5702916,50.7421875 C33.144429,51.8671875 33.1327119,53.2734375 32.5585745,54.4101562 C32.2773643,54.9492188 31.6329244,55.8867188 30.3674786,56.0859375 C29.6293019,56.203125 28.855974,56.2617188 28.0592118,56.2617188 C21.6616805,56.2617188 14.6900118,52.59375 9.8391364,46.6992188 C4.68361666,40.4179687 2.7034284,32.5664062 4.28523559,24.5859375 C6.28885803,14.4375 14.4791042,6.28125 24.6612556,4.2890625 C26.4422534,3.9375 28.2349682,3.76171875 29.9925317,3.76171875 C44.4162699,3.76171875 56.1919457,15.46875 56.238814,29.8476563 C56.238814,31.9921875 54.5046846,33.75 52.3838913,33.75 Z M43.1156729,15.9375 C41.5572999,15.9375 40.3035712,17.1914062 40.3035712,18.75 C40.3035712,20.3085937 41.5572999,21.5625 43.1156729,21.5625 C44.6740459,21.5625 45.9277745,20.3085937 45.9277745,18.75 C45.9277745,17.1914062 44.6740459,15.9375 43.1156729,15.9375 Z M28.1177973,10.3125 C26.5594243,10.3125 25.3056956,11.5664062 25.3056956,13.125 C25.3056956,14.6835937 26.5594243,15.9375 28.1177973,15.9375 C29.6761703,15.9375 30.9298989,14.6835937 30.9298989,13.125 C30.9298989,11.5664062 29.6761703,10.3125 28.1177973,10.3125 Z" id="Shape"></path>
                </g>
            </g>
        </g>
    </g>
</svg>