<svg width="69px" height="60px" viewBox="0 0 69 60" version="1.1" xmlns="http://www.w3.org/2000/svg" xmlns:xlink="http://www.w3.org/1999/xlink">
    <!-- Generator: Sketch 51.3 (57544) - http://www.bohemiancoding.com/sketch -->
    <desc>Created with Sketch.</desc>
    <defs></defs>
    <g id="Drawing-Page-3" stroke="none" stroke-width="1" fill="none" fill-rule="evenodd">
        <g id="Desktop-HD" transform="translate(-160.000000, -675.000000)" fill="#FFFFFF" fill-rule="nonzero">
            <g id="Menu" transform="translate(159.000000, 165.000000)">
                <g id="eraser" transform="translate(1.000000, 510.000000)">
                    <path d="M66.9041501,32.4027971 C69.4227546,29.8923046 69.4227546,25.8219452 66.9041501,23.3114527 L45.4063263,1.88286936 C42.8878562,-0.627489188 38.8043446,-0.627757045 36.2854715,1.88286936 L1.88895332,36.1686028 C-0.629651106,38.6790952 -0.629651106,42.7494547 1.88895332,45.2599471 L14.7876476,58.1170972 C15.9971279,59.3226909 17.6375381,59.9999911 19.3480079,60 L67.1806659,60 C68.0710789,60 68.7930027,59.2804014 68.7930027,58.3928562 L68.7930027,57.3214271 C68.7930027,56.4338819 68.0710789,55.7142833 67.1806659,55.7142833 L43.5173394,55.7142833 L66.9041501,32.4027971 Z M39.3256668,4.91340676 C40.164485,4.07729022 41.5257004,4.07581701 42.3659966,4.91327283 L63.8638204,26.3418562 C64.7026386,27.1779728 64.7039822,28.5348039 63.8638204,29.3722597 L48.1855918,45.0001256 L23.6475726,20.5410048 L39.3256668,4.91340676 Z M19.3480079,55.7142833 C18.7775327,55.7158609 18.2301359,55.4898719 17.827843,55.0866937 L4.92914869,42.2295437 C4.09033048,41.3934271 4.08898686,40.036596 4.92914869,39.1991402 L20.6073773,23.5714082 L45.1453965,48.030529 L38.0664318,55.0866937 C37.6641389,55.4898719 37.1167421,55.7158609 36.5462669,55.7142833 L19.3480079,55.7142833 Z" id="Shape"></path>
                </g>
            </g>
        </g>
    </g>
</svg>