
<svg width="68px" height="60px" viewBox="0 0 68 60" version="1.1" xmlns="http://www.w3.org/2000/svg" xmlns:xlink="http://www.w3.org/1999/xlink">
    <!-- Generator: Sketch 51.3 (57544) - http://www.bohemiancoding.com/sketch -->
    <desc>Created with Sketch.</desc>
    <defs></defs>
    <g id="Drawing-Page-3" stroke="none" stroke-width="1" fill="none" fill-rule="evenodd">
        <g id="Desktop-HD" transform="translate(-161.000000, -335.000000)" fill="#FFFFFF" fill-rule="nonzero">
            <g id="Menu" transform="translate(159.000000, 165.000000)">
                <g id="fill-drip" transform="translate(2.000000, 170.000000)">
                    <path d="M59.7700825,37.4992676 C59.7700825,37.4992676 52.2987857,48.3564774 52.2987857,52.4989746 C52.2987857,56.6414718 55.6445258,59.9988281 59.7700825,59.9988281 C63.8956392,59.9988281 67.2413793,56.6414718 67.2413793,52.4989746 C67.2413793,48.3564774 59.7700825,37.4992676 59.7700825,37.4992676 Z M59.7700825,56.2489014 C57.7108063,56.2489014 56.0344341,54.5661218 56.0344341,52.503662 C56.0647863,51.3575907 57.6185825,48.0892951 59.7712499,44.4495225 C61.9227499,48.0869514 63.4753788,51.3529033 63.5057309,52.4989746 C63.5057309,54.5661218 61.8293587,56.2489014 59.7700825,56.2489014 Z M58.676238,25.4362219 L34.4307125,1.09802543 C33.7010936,0.365617859 32.7450011,0 31.7889086,0 C30.8328161,0 29.8767236,0.365617859 29.1482722,1.09802543 L18.3090549,11.9786723 L6.65032969,0.275385246 C6.28610397,-0.0902326126 5.69423718,-0.0902326126 5.33001146,0.275385246 L4.00852584,1.60074999 C3.64430012,1.96636784 3.64430012,2.56049687 4.00852584,2.92611472 L15.6684184,14.6305736 L3.28240918,27.0639245 C-1.09413639,31.4571981 -1.09413639,38.5785434 3.28240918,42.971817 L16.963054,56.7047519 C19.1519105,58.9008027 22.0190207,60 24.8861308,60 C27.7544084,60 30.6215185,58.9019746 32.8092076,56.7047519 L58.6750706,30.7400246 C60.1343082,29.2752095 60.1343082,26.9010371 58.676238,25.4362219 Z M30.1685711,54.0528505 C28.7571965,55.4684479 26.8812005,56.2489014 24.8861308,56.2489014 C22.8910611,56.2489014 21.0150652,55.4684479 19.6048579,54.0528505 L5.92304564,40.3187438 C5.11988124,39.5125095 4.54902747,38.5445597 4.18246697,37.4992676 L46.6579566,37.4992676 L30.1685711,54.0528505 Z M50.393605,33.7493408 L3.8590999,33.7493408 C4.11592573,32.2306205 4.81635981,30.8267417 5.92421303,29.714654 L18.3090549,17.2801312 L28.5645771,27.5748521 C29.2941959,28.3072596 30.4767621,28.3072596 31.2052136,27.5748521 C31.9348324,26.8424445 31.9348324,25.6553583 31.2052136,24.9241226 L20.9496913,14.6294018 L31.7865738,3.74992676 L31.7889086,3.74992676 L56.0344341,28.0869514 L50.393605,33.7493408 Z" id="Shape"></path>
                </g>
            </g>
        </g>
    </g>
</svg>