
<svg width="56px" height="60px" viewBox="0 0 56 60" version="1.1" xmlns="http://www.w3.org/2000/svg" xmlns:xlink="http://www.w3.org/1999/xlink">
    <!-- Generator: Sketch 51.3 (57544) - http://www.bohemiancoding.com/sketch -->
    <desc>Created with Sketch.</desc>
    <defs></defs>
    <g id="Drawing-Page-3" stroke="none" stroke-width="1" fill="none" fill-rule="evenodd">
        <g id="Desktop-HD" transform="translate(-166.000000, -420.000000)" fill="#FFFFFF" fill-rule="nonzero">
            <g id="Menu" transform="translate(159.000000, 165.000000)">
                <g id="font" transform="translate(7.000000, 255.000000)">
                    <path d="M29.008125,-6.15380762e-15 L26.7062946,-6.15380762e-15 C26.03587,-4.95228591e-05 25.4358709,0.416143446 25.2010714,1.04410714 L4.75084821,55.7142857 L1.60714286,55.7142857 C0.719598214,55.7142857 0,56.4338839 0,57.3214286 L0,58.3928571 C0,59.2804018 0.719598214,60 1.60714286,60 L13.3928571,60 C14.2804018,60 15,59.2804018 15,58.3928571 L15,57.3214286 C15,56.4338839 14.2804018,55.7142857 13.3928571,55.7142857 L9.63120536,55.7142857 L15.61125,39.58125 L40.0201339,39.58125 L46.0798661,55.7142857 L42.3214286,55.7142857 C41.4338839,55.7142857 40.7142857,56.4338839 40.7142857,57.3214286 L40.7142857,58.3928571 C40.7142857,59.2804018 41.4338839,60 42.3214286,60 L54.1071429,60 C54.9946875,60 55.7142857,59.2804018 55.7142857,58.3928571 L55.7142857,57.3214286 C55.7142857,56.4338839 54.9946875,55.7142857 54.1071429,55.7142857 L50.9634375,55.7142857 L30.5133482,1.04410714 C30.2784846,0.416193315 29.6785254,2.79925938e-05 29.008125,-6.15380762e-15 Z M17.2280357,35.26875 L27.3658929,8.31683036 C27.5667857,7.80026786 27.729375,7.26857143 27.8571429,6.78642857 C27.984375,7.26709821 28.1462946,7.79678571 28.3461161,8.31080357 L38.4038839,35.26875 L17.2280357,35.26875 Z" id="Shape"></path>
                </g>
            </g>
        </g>
    </g>
</svg>