
<svg width="60px" height="60px" viewBox="0 0 60 60" version="1.1" xmlns="http://www.w3.org/2000/svg" xmlns:xlink="http://www.w3.org/1999/xlink">
    <!-- Generator: Sketch 51.3 (57544) - http://www.bohemiancoding.com/sketch -->
    <desc>Created with Sketch.</desc>
    <defs></defs>
    <g id="Drawing-Page-3" stroke="none" stroke-width="1" fill="none" fill-rule="evenodd">
        <g id="Desktop-HD" transform="translate(-165.000000, -250.000000)" fill="#FFFFFF" fill-rule="nonzero">
            <g id="Menu" transform="translate(159.000000, 165.000000)">
                <g id="pen-fancy" transform="translate(6.000000, 85.000000)">
                    <path d="M49.788068,0 C47.0388611,0 44.2978572,1.1296875 42.3220844,3.365625 L19.9135866,28.125 L9.85542655,31.4789063 C8.66597507,31.8755961 7.73259425,32.8089809 7.33590609,33.9984375 L0,56.015625 L3.98318607,60 L25.9897325,52.6617187 C27.1791839,52.2650289 28.1125648,51.3316441 28.5092529,50.1421875 L31.8608011,40.078125 L56.6095232,17.6601562 C63.8083205,11.2945312 58.602874,0 49.788068,0 Z M24.9526275,48.9550781 C24.9291901,49.0242188 7.91129425,54.7371094 7.91129425,54.7371094 L15.9538379,46.6910156 C16.2538366,46.7683594 16.5432885,46.875 16.8678965,46.875 C18.9385908,46.875 20.6167086,45.1957031 20.6167086,43.125 C20.6167086,41.0542969 18.9385908,39.375 16.8678965,39.375 C14.7972023,39.375 13.1190844,41.0542969 13.1190844,43.125 C13.1190844,43.4496094 13.2257246,43.7390625 13.303068,44.0390625 L5.25935248,52.0863281 C5.25935248,52.0863281 10.968703,35.0601563 11.0390152,35.0367188 L21.414752,31.5761719 L28.409644,38.5734375 L24.9526275,48.9550781 Z M54.0935184,14.8792969 L30.9678361,35.8289063 L24.1604434,29.0191406 L45.1298849,5.85 C46.3099551,4.51483919 48.0061576,3.75015799 49.788068,3.75 C53.1982097,3.75 56.3353056,6.74414063 56.2228061,10.3839844 C56.170072,12.1160156 55.4247627,13.7015625 54.0935184,14.8792969 Z" id="Shape"></path>
                </g>
            </g>
        </g>
    </g>
</svg>