<svg width="60px" height="60px" viewBox="0 0 60 60" version="1.1" xmlns="http://www.w3.org/2000/svg" xmlns:xlink="http://www.w3.org/1999/xlink">
    <!-- Generator: Sketch 51.3 (57544) - http://www.bohemiancoding.com/sketch -->
    <desc>Created with Sketch.</desc>
    <defs></defs>
    <g id="Drawing-Page-3" stroke="none" stroke-width="1" fill="none" fill-rule="evenodd">
        <g id="Desktop-HD" transform="translate(-165.000000, -590.000000)" fill="#FFFFFF" fill-rule="nonzero">
            <g id="Menu" transform="translate(159.000000, 165.000000)">
                <g id="draw-polygon" transform="translate(6.000000, 425.000000)">
                    <path d="M51.4274235,42.8571429 C50.5836923,42.8571429 49.7854959,43.0165179 49.0154238,43.2441964 L44.6735564,36.009375 C46.1976295,34.4611607 47.1418049,32.3424107 47.1418049,30 C47.1418049,27.6575893 46.1976295,25.5388393 44.6748956,23.990625 L49.016763,16.7558036 C49.7868351,16.9834821 50.5850316,17.1428571 51.4287628,17.1428571 C56.1630321,17.1428571 60,13.3058036 60,8.57142857 C60,3.83705357 56.1630321,0 51.4287628,0 C47.4391197,0 44.116426,2.73883929 43.1601973,6.42857143 L16.8398027,6.42857143 C15.883574,2.73883929 12.5608803,0 8.57123725,0 C3.83696792,0 0,3.83705357 0,8.57142857 C0,12.5611607 2.7374389,15.8839286 6.42842794,16.8401786 L6.42842794,43.1611607 C2.7374389,44.1160714 0,47.4388393 0,51.4285714 C0,56.1629464 3.83696792,60 8.57123725,60 C12.5608803,60 15.883574,57.2625 16.8398027,53.5714286 L43.1601973,53.5714286 C44.116426,57.2625 47.4391197,60 51.4287628,60 C56.1630321,60 60,56.1629464 60,51.4285714 C59.9986607,46.6941964 56.1616928,42.8571429 51.4274235,42.8571429 Z M10.7140466,43.1598214 L10.7140466,16.8401786 C13.7153189,16.0633929 16.0616951,13.7169643 16.8398027,10.7142857 L43.1601973,10.7142857 C43.5432245,12.1928571 44.2851722,13.5254464 45.3244347,14.5808036 L40.9825674,21.815625 C40.2124953,21.5879464 39.4142988,21.4285714 38.5705676,21.4285714 C33.8362983,21.4285714 29.9993304,25.265625 29.9993304,30 C29.9993304,34.734375 33.8362983,38.5714286 38.5705676,38.5714286 C39.4142988,38.5714286 40.2124953,38.4120536 40.9825674,38.184375 L45.3244347,45.4191964 C44.2851722,46.4745536 43.5432245,47.8071429 43.1601973,49.2857143 L16.8398027,49.2857143 C16.0607541,46.2834236 13.7162703,43.9388874 10.7140466,43.1598214 Z M38.5705676,34.2857143 C36.2081204,34.2857143 34.284949,32.3625 34.284949,30 C34.284949,27.6375 36.2081204,25.7142857 38.5705676,25.7142857 C40.9330149,25.7142857 42.8561862,27.6375 42.8561862,30 C42.8561862,32.3625 40.9330149,34.2857143 38.5705676,34.2857143 Z M51.4274235,4.28571429 C53.7898708,4.28571429 55.7130421,6.20892857 55.7130421,8.57142857 C55.7130421,10.9339286 53.7898708,12.8571429 51.4274235,12.8571429 C49.0649762,12.8571429 47.1418049,10.9339286 47.1418049,8.57142857 C47.1418049,6.20892857 49.0649762,4.28571429 51.4274235,4.28571429 Z M4.28561862,8.57142857 C4.28561862,6.20892857 6.20878998,4.28571429 8.57123725,4.28571429 C10.9336845,4.28571429 12.8568559,6.20892857 12.8568559,8.57142857 C12.8568559,10.9339286 10.9336845,12.8571429 8.57123725,12.8571429 C6.20878998,12.8571429 4.28561862,10.9339286 4.28561862,8.57142857 Z M8.57123725,55.7142857 C6.20878998,55.7142857 4.28561862,53.7910714 4.28561862,51.4285714 C4.28561862,49.0660714 6.20878998,47.1428571 8.57123725,47.1428571 C10.9336845,47.1428571 12.8568559,49.0660714 12.8568559,51.4285714 C12.8568559,53.7910714 10.9336845,55.7142857 8.57123725,55.7142857 Z M51.4274235,55.7142857 C49.0649762,55.7142857 47.1418049,53.7910714 47.1418049,51.4285714 C47.1418049,49.0660714 49.0649762,47.1428571 51.4274235,47.1428571 C53.7898708,47.1428571 55.7130421,49.0660714 55.7130421,51.4285714 C55.7130421,53.7910714 53.7898708,55.7142857 51.4274235,55.7142857 Z" id="Shape"></path>
                </g>
            </g>
        </g>
    </g>
</svg>