
<svg width="60px" height="60px" viewBox="0 0 60 60" version="1.1" xmlns="http://www.w3.org/2000/svg" xmlns:xlink="http://www.w3.org/1999/xlink">
    <!-- Generator: Sketch 51.3 (57544) - http://www.bohemiancoding.com/sketch -->
    <desc>Created with Sketch.</desc>
    <defs></defs>
    <g id="Drawing-Page-3" stroke="none" stroke-width="1" fill="none" fill-rule="evenodd">
        <g id="Desktop-HD" transform="translate(-165.000000, -505.000000)" fill="#FFFFFF" fill-rule="nonzero">
            <g id="Menu" transform="translate(159.000000, 165.000000)">
                <g id="stamp" transform="translate(6.000000, 340.000000)">
                    <path d="M48.75,30 L40.95,30 C39.0445312,30 37.5,28.4554687 37.5,26.55 L37.5,25.4414062 C37.5,22.2339844 38.540625,19.18125 40.0148437,16.3324219 C41.0824219,14.26875 41.5265625,11.8347656 41.0753906,9.25195312 C40.2820312,4.70742187 36.5671875,0.966796875 32.0214844,0.17578125 C31.3371094,0.057421875 30.6621094,0 30,0 C23.7867187,0 18.75,5.03671875 18.75,11.25 C18.75,12.909375 19.115625,14.4773437 19.7671875,15.8871094 C21.3304687,19.2691406 22.5,22.8175781 22.5,26.5429687 L22.5,26.55 C22.5,28.4554687 20.9554687,30 19.05,30 L11.25,30 C5.03671875,30 0,35.0367187 0,41.25 L0,45 C0,47.0707031 1.67929687,48.75 3.75,48.75 L3.75,56.25 C3.75,58.3207031 5.42929687,60 7.5,60 L52.5,60 C54.5707031,60 56.25,58.3207031 56.25,56.25 L56.25,48.75 C58.3207031,48.75 60,47.0707031 60,45 L60,41.25 C60,35.0367187 54.9632812,30 48.75,30 Z M52.5,56.25 L7.5,56.25 L7.5,48.75 L52.5,48.75 L52.5,56.25 Z M56.25,45 L3.75,45 L3.75,41.25 C3.75,37.1144531 7.11445312,33.75 11.25,33.75 L19.05,33.75 C23.0203125,33.75 26.25,30.5203125 26.25,26.5429687 C26.25,22.74375 25.2714844,18.8578125 23.1714844,14.3144531 C22.7261719,13.35 22.5,12.31875 22.5,11.25 C22.5,7.11445312 25.8644531,3.75 30,3.75 C30.4546875,3.75 30.9175781,3.79101562 31.378125,3.87070312 C34.3359375,4.38515625 36.8613281,6.91992187 37.3804687,9.89648437 C37.6675781,11.5417969 37.4261719,13.171875 36.6832031,14.6085937 C34.7097656,18.4253906 33.75,21.9691406 33.75,25.4414062 L33.75,26.55 C33.75,30.5203125 36.9796875,33.75 40.95,33.75 L48.75,33.75 C52.8855469,33.75 56.25,37.1144531 56.25,41.25 L56.25,45 Z" id="Shape"></path>
                </g>
            </g>
        </g>
    </g>
</svg>